# xmcd CD database file
#
# Track frame offsets:
#	150
#	24990
#	39555
#	63200
#	86946
#	106652
#	123323
#	146572
#	165311
#	187959
#	213305
#
# Disc length: 3124 seconds
#
# Revision: 1
# Processed by: cddbd v1.5.1PL0 Copyright (c) Steve Scherf et al.
# Submitted via: CDex 1.51
#
DISCID=890c320b
DTITLE=4 To The Bar - Samba Bianco
DYEAR=2003
DGENRE=Jazz
TTITLE0=Make Me Sweat
TTITLE1=The One I´ve Loved
TTITLE2=Flight 647
TTITLE3=Do That
TTITLE4=Boogie Right Now
TTITLE5=Tricky, Tricky
TTITLE6=Teardrops
TTITLE7=Pearl
TTITLE8=Rain In Africa
TTITLE9=Piece Of Paper
TTITLE10=All Night Long
EXTD=YEAR: 2003
EXTT0=
EXTT1=
EXTT2=
EXTT3=
EXTT4=
EXTT5=
EXTT6=
EXTT7=
EXTT8=
EXTT9=
EXTT10=
PLAYORDER=
